<svg xmlns="http://www.w3.org/2000/svg" data-name="Layer 1" viewBox="0 0 24 24"><path d="M11 6a7 7 0 0 1 1 0c3.2 0 6.2 2.3 8 6a15.2 15.2 0 0 1-1 1.6 1 1 0 0 0-.1.6 1 1 0 0 0 1.8.5 15.8 15.8 0 0 0 1.2-2.3 1 1 0 0 0 0-.8C20 6.9 16.1 4 12 4a7.8 7.8 0 0 0-1.4.1 1 1 0 1 0 .3 2ZM3.6 2.4a1 1 0 0 0-1.4 1.4l3 3.1a14.6 14.6 0 0 0-3.2 4.8 1 1 0 0 0 0 .8C4 17.1 7.9 20 12 20a9.3 9.3 0 0 0 5-1.5l3.3 3.2a1 1 0 0 0 1.4 0 1 1 0 0 0 0-1.4Zm6.4 9.2 2.4 2.4a1.8 1.8 0 0 1-.5.1 2 2 0 0 1-2-2 1.8 1.8 0 0 1 0-.5ZM12 18c-3.2 0-6.2-2.3-7.9-6a12 12 0 0 1 2.7-3.8L8.6 10a4 4 0 0 0 5.4 5.4l1.6 1.6a7.2 7.2 0 0 1-3.6 1Z"/></svg>