<svg width="358" height="65" fill="none" xmlns="http://www.w3.org/2000/svg"><g clip-path="url(#logo-a)" fill="#48466D"><path d="M12 54.2H6l-6-43h5.8l3.1 22.1 3-22.2h5.7L12 54.2ZM31.7 11v43H26V11h5.7ZM53 54l-6.3-23.8-.9 1.5V54h-5.6v-43h5.6v9.4l3.7-9.4h7l-5.8 12.4L58.8 54h-5.9ZM153.1 49.8H150V5.5c0-1.3-1-2.3-2.4-2.3H89.3c-1.4 0-2.4 1-2.4 2.3v44.3h-3.2V5.5c0-3 2.5-5.5 5.6-5.5h58.3c3 0 5.5 2.5 5.5 5.5v44.3Zm-7.8-1.7h12.6v3.2h-12.6V48Zm-66.3 0h56v3.2H79V48Zm48.2-20L151.7 63l-2.6 1.8L124.6 30l2.6-1.8Zm-28.5-6.8h39.5v3.2H98.7v-3.2Zm0-7.9h39.5v3.2H98.7v-3.2Zm0 15.8h16.6v3.1H98.7v-3.1ZM186 54.2a8 8 0 0 1-8-8v-6.4h5.7v6.4c0 1.3 1 2.3 2.3 2.3 1.3 0 2.3-1 2.3-2.3v-5.6L178 26.4V19a8 8 0 0 1 8-8.1 8 8 0 0 1 8 8v6.4h-5.7v-6.3c0-1.4-1-2.4-2.3-2.4-1.3 0-2.3 1-2.3 2.4v5.3L194 38.7v7.5a8 8 0 0 1-8 8Zm24-.5A7.9 7.9 0 0 1 202 46v-26a7.9 7.9 0 0 1 15.7 0v2.3h-5.5v-2.3c0-1.3-1-2.3-2.3-2.3-1.2 0-2.3 1-2.3 2.3v26c0 1.2 1 2.3 2.3 2.3 1.2 0 2.3-1 2.3-2.3V42h5.5V46c0 4.3-3.5 7.8-7.8 7.8ZM236.5 12h5.6v41.8h-5.6V31.7h-5v22H226V12h5.5v14.2h5V12ZM264 31.8h-8.1v16.5h8.1v5.5h-13.7V12H264v5.6h-8.1v8.6h8v5.6Zm15.5 22.1h-7.3V12.1h7.3c5 0 9 4 9 9V45a9 9 0 0 1-9 9Zm-1.8-36.2v30.6h1.8a3.4 3.4 0 0 0 3.4-3.4V21c0-1.8-1.5-3.4-3.4-3.4h-1.8ZM305.1 54a8.6 8.6 0 0 1-8.6-8.7V12.1h5.6v33.2a3 3 0 0 0 3 3.2 3 3 0 0 0 3-3.2V12.1h5.6v33.2c0 4.8-3.8 8.7-8.6 8.7Zm22.3-5.7h8v5.5H322v-42h5.5v36.5Zm29.9-16.5h-8.1v16.5h8.1v5.5h-13.7V12h13.7v5.6h-8.1v8.6h8v5.6Z"/></g><defs><clipPath id="logo-a"><path fill="#fff" d="M0 0h357.3v64.8H0z"/></clipPath></defs></svg>