<svg width="48" height="48" fill="none" xmlns="http://www.w3.org/2000/svg"><path d="M44 11h-3V6c0-.5-.5-1-1-1h-8a1 1 0 0 0-1 1v5H17V6c0-.5-.4-1-1-1H8a1 1 0 0 0-1 1v5H4a1 1 0 0 0-1 1v30c0 .5.5 1 1 1h40c.5 0 1-.5 1-1V12c0-.6-.5-1-1-1ZM33 7h6v4h-6V7ZM9 7h6v4H9V7Zm34 34H5V13h38v28Z" fill="#fff"/><path d="M10 26h6c.6 0 1-.4 1-1v-6c0-.5-.4-1-1-1h-6a1 1 0 0 0-1 1v6c0 .6.4 1 1 1Zm1-6h4v4h-4v-4Zm21 6h6c.5 0 1-.4 1-1v-6c0-.5-.5-1-1-1h-6a1 1 0 0 0-1 1v6c0 .6.4 1 1 1Zm1-6h4v4h-4v-4ZM10 36h6c.6 0 1-.4 1-1v-6c0-.5-.4-1-1-1h-6a1 1 0 0 0-1 1v6c0 .6.4 1 1 1Zm1-6h4v4h-4v-4Zm16-2h-6a1 1 0 0 0-1 1v6c0 .6.4 1 1 1h6c.6 0 1-.4 1-1v-6c0-.5-.4-1-1-1Zm-1 6h-4v-4h4v4Zm6 2h6c.5 0 1-.4 1-1v-6c0-.5-.5-1-1-1h-6a1 1 0 0 0-1 1v6c0 .6.4 1 1 1Zm1-6h4v4h-4v-4Zm-11.8-6.4c.1.2.4.3.6.4h.2c.2 0 .4 0 .6-.2l7-5c.4-.3.5-1 .2-1.4a1 1 0 0 0-1.4-.2l-6.1 4.4-1.5-2.2a1 1 0 0 0-1.4-.3 1 1 0 0 0-.3 1.4l2 3Z" fill="#fff"/></svg>