<svg width="64" height="64" fill="none" xmlns="http://www.w3.org/2000/svg"><path d="M29.5 29.5a11.5 11.5 0 1 0-23 0 11.5 11.5 0 0 0 23 0ZM18 37a7.5 7.5 0 1 1 0-15 7.5 7.5 0 0 1 0 15Zm39.5-24.5a11.5 11.5 0 1 0-23 0 11.5 11.5 0 0 0 23 0ZM46 20a7.5 7.5 0 1 1 0-15 7.5 7.5 0 0 1 0 15Zm16 14h-2v-5a4.9 4.9 0 0 0-4.8-5H36.8a4.9 4.9 0 0 0-4.8 5v5a2 2 0 0 0 0 4h30a2 2 0 0 0 0-4Zm-26 0v-5a1 1 0 0 1 .8-1h18.4a1 1 0 0 1 .8 1v5H36Zm8 17H32v-5a4.9 4.9 0 0 0-4.8-5H8.8A4.9 4.9 0 0 0 4 46v5H2a2 2 0 0 0-2 2v8a2 2 0 0 0 2 2h42a2 2 0 0 0 2-2v-8a2 2 0 0 0-2-2ZM8 46a1 1 0 0 1 .8-1h18.4a1 1 0 0 1 .8 1v5H8v-5Zm34 13H4v-4h38v4Z" fill="#fff"/><path d="M46 44h-8a2 2 0 0 0 0 4h8a2 2 0 0 0 0-4ZM52 48a2 2 0 1 0 0-4 2 2 0 0 0 0 4Z" fill="#fff"/></svg>