<svg xmlns="http://www.w3.org/2000/svg" viewBox="0 0 640 512"><!--! Font Awesome Pro 6.2.1 by @fontawesome - https://fontawesome.com License - https://fontawesome.com/license (Commercial License) Copyright 2022 Fonticons, Inc.--><path d="M144 160a80 80 0 1 1 0-160 80 80 0 0 1 0 160zm368 0a80 80 0 1 1 0-160 80 80 0 0 1 0 160zM0 298.7C0 239.8 47.8 192 106.7 192h42.7c15.9 0 31 3.5 44.6 9.7A128 128 0 0 0 235.4 320H21.3A21.4 21.4 0 0 1 0 298.7zM405.3 320h-.7A127.7 127.7 0 0 0 446 201.7c13.6-6.3 28.7-9.7 44.6-9.7h42.7c58.9 0 106.7 47.8 106.7 106.7 0 11.8-9.6 21.3-21.3 21.3H405.3zm10.7-96a96 96 0 1 1-192 0 96 96 0 0 1 192 0zM128 485.3c0-73.6 59.7-133.3 133.3-133.3h117.4c73.6 0 133.3 59.7 133.3 133.3a26.7 26.7 0 0 1-26.7 26.7H154.7a26.7 26.7 0 0 1-26.7-26.7z"/></svg>